<svg role="img" width="159" height="31" viewBox="0 0 159 31" fill="none" xmlns="http://www.w3.org/2000/svg">
<title>Логотип Прозорро</title>
<g clip-path="url(#clip0_6775_1304)">
<path d="M20.1876 10.0981C20.1876 15.6723 16.1171 20.1918 10.4179 20.1918C7.77342 20.1918 5.49199 19.0943 3.90615 17.0159V30.2857H0V0.328383H3.90615V3.17589C5.49199 1.10185 7.77342 0 10.4179 0C16.1171 0.00431756 20.1876 4.51972 20.1876 10.0981ZM16.2769 10.0981C16.2769 6.68022 13.5073 3.91047 10.0895 3.91047C6.67156 3.91047 3.90184 6.67589 3.90184 10.0981C3.90184 13.516 6.67156 16.2857 10.0895 16.2857C13.5073 16.2857 16.2769 13.516 16.2769 10.0981Z" fill="black"/>
<path d="M36.141 0.00439453V4.27784C35.2033 3.99266 33.7817 3.99266 32.5589 4.44203C29.9964 5.41858 28.3242 7.57471 28.3242 11.1567V19.8677H24.4181V0.332777H28.3242V4.52414C29.6681 1.71117 32.4768 0.00439453 36.141 0.00439453Z" fill="black"/>
<path d="M58.2746 10.0982C58.2746 15.6723 53.7547 20.1921 48.1808 20.1921C42.6067 20.1921 38.0869 15.6723 38.0869 10.0982C38.0869 4.52414 42.6067 0.00439453 48.1808 0.00439453C53.7547 0.00439453 58.2746 4.5198 58.2746 10.0982ZM54.3683 10.0982C54.3683 6.71919 51.5597 3.91054 48.1808 3.91054C44.8017 3.91054 41.9931 6.71919 41.9931 10.0982C41.9931 13.4773 44.8017 16.2857 48.1808 16.2857C51.5597 16.2857 54.3683 13.4773 54.3683 10.0982Z" fill="black"/>
<path d="M61.5367 19.8635L71.1422 4.23455H62.189V0.328369H77.818L68.1304 15.9574H77.1658V19.8635H61.5367Z" fill="black"/>
<path d="M120.142 0.00439453V4.27784C119.204 3.99266 117.782 3.99266 116.559 4.44203C113.997 5.41858 112.325 7.57471 112.325 11.1567V19.8677H108.419V0.332777H112.325V4.52414C113.669 1.71117 116.477 0.00439453 120.142 0.00439453Z" fill="black"/>
<path d="M136.415 0.00439453V4.27784C135.477 3.99266 134.055 3.99266 132.833 4.44203C130.271 5.41858 128.599 7.57471 128.599 11.1567V19.8677H124.692V0.332777H128.599V4.52414C129.942 1.71117 132.75 0.00439453 136.415 0.00439453Z" fill="black"/>
<path d="M158.558 10.0982C158.558 15.6723 154.039 20.1921 148.464 20.1921C142.89 20.1921 138.371 15.6723 138.371 10.0982C138.371 4.52414 142.89 0.00439453 148.464 0.00439453C154.039 0.00439453 158.558 4.5198 158.558 10.0982ZM154.648 10.0982C154.648 6.71919 151.839 3.91054 148.46 3.91054C145.081 3.91054 142.273 6.71919 142.273 10.0982C142.273 13.4773 145.081 16.2857 148.46 16.2857C151.843 16.2815 154.648 13.4773 154.648 10.0982Z" fill="black"/>
<path d="M103.613 9.055V2.20874L100.736 2.76829C99.7958 2.95104 98.8304 2.96501 97.8856 2.80955C96.7548 2.62343 95.5969 2.6805 94.4898 2.97692L92.763 3.43917C91.6917 3.72612 90.5565 3.66925 89.5187 3.27657C88.635 2.94228 87.6783 2.85032 86.7475 3.01025L81.6812 3.88048V10.7666L86.7637 9.92463C87.6853 9.77201 88.6306 9.86006 89.5078 10.1801C90.5538 10.5619 91.6922 10.612 92.7673 10.3241L94.5466 9.84778C95.6164 9.56136 96.7353 9.5062 97.8283 9.68608C98.8099 9.84762 99.8142 9.82128 100.784 9.59917C101.074 9.5327 101.355 9.46753 101.583 9.41324C102.252 9.25396 103.215 9.10805 103.613 9.055Z" fill="#1685F8"/>
<path d="M103.613 15.9011V9.05481L100.736 9.61439C99.7958 9.79713 98.8304 9.81109 97.8856 9.65566C96.7548 9.46951 95.5969 9.52656 94.4898 9.82298L92.763 10.2853C91.6917 10.5721 90.5565 10.5153 89.5187 10.1227C88.635 9.78837 87.6783 9.69638 86.7475 9.85635L81.6812 10.7265V17.6127L86.7637 16.7708C87.6853 16.6182 88.6306 16.7061 89.5078 17.0261C90.5538 17.4078 91.6922 17.4581 92.7673 17.1703L94.5466 16.6939C95.6164 16.4075 96.7353 16.3522 97.8283 16.5321C98.8099 16.6936 99.8142 16.6673 100.784 16.4452C101.074 16.3788 101.355 16.3138 101.583 16.2594C102.252 16.1001 103.215 15.9542 103.613 15.9011Z" fill="#FFE600"/>
</g>
<defs>
<clipPath id="clip0_6775_1304">
<rect width="159" height="30.2857" fill="white"/>
</clipPath>
</defs>
</svg>
