<svg width="20" height="16" viewBox="0 0 20 16" fill="none" xmlns="http://www.w3.org/2000/svg">
<path d="M19.81 3.7983C19.7135 3.04205 19.4348 2.32372 19 1.71052C18.4631 1.17069 17.7454 0.871046 17 0.875404C14.21 0.666626 10 0.666626 10 0.666626C10 0.666626 5.8 0.666626 3 0.875404C2.25475 0.872149 1.53751 1.17164 1 1.71052C0.568736 2.32477 0.293514 3.04302 0.2 3.7983C0.2 3.7983 0 5.37457 0 6.9926V9.01775C0.0164823 10.0645 0.0832328 11.1097 0.2 12.1494C0.293937 12.9046 0.569118 13.6227 1 14.2372C1.60796 14.7983 2.38857 15.1132 3.2 15.1245C4.66 15.2707 9.1 15.3229 9.88 15.3333H10.28C11.28 15.3333 14.63 15.3333 17 15.1141C17.7509 15.1062 18.4689 14.7914 19 14.2372C19.4313 13.623 19.7065 12.9047 19.8 12.1494C19.9234 11.0369 19.9902 9.91841 20 8.79854V7.22226C19.996 6.07819 19.9326 4.93519 19.81 3.7983ZM7.94 10.7193V4.84219L13.35 7.78596L7.94 10.7193Z" fill="#6D6D6D"/>
</svg>
